<svg width="25" height="24" viewBox="0 0 25 24" fill="none" xmlns="http://www.w3.org/2000/svg">
<g clip-path="url(#clip0_51_89)">
<path d="M12.1748 2C6.66472 2 2.20276 6.48 2.20276 12C2.20276 17.52 6.66472 22 12.1748 22C17.6949 22 22.1668 17.52 22.1668 12C22.1668 6.48 17.6949 2 12.1748 2ZM12.1848 20C7.77273 20 4.19916 16.42 4.19916 12C4.19916 7.58 7.77273 4 12.1848 4C16.5968 4 20.1704 7.58 20.1704 12C20.1704 16.42 16.5968 20 12.1848 20Z" fill="white"/>
<path d="M12.6838 7H11.1865V13L16.4271 16.15L17.1757 14.92L12.6838 12.25V7Z" fill="white"/>
</g>
<defs>
<clipPath id="clip0_51_89">
<rect width="23.9569" height="24" fill="white" transform="translate(0.206299)"/>
</clipPath>
</defs>
</svg>
